<?xml version="1.0" standalone="no"?><!DOCTYPE svg PUBLIC "-//W3C//DTD SVG 1.1//EN" "http://www.w3.org/Graphics/SVG/1.1/DTD/svg11.dtd"><svg t="1624609312349" class="icon" viewBox="0 0 1024 1024" version="1.1" xmlns="http://www.w3.org/2000/svg" p-id="2063" xmlns:xlink="http://www.w3.org/1999/xlink" width="200" height="200"><defs><style type="text/css"></style></defs><path d="M671.264 561.536c-6.368-63.52-54.208-114.96-115.952-126.864A149.12 149.12 0 0 0 576 359.456a148.992 148.992 0 0 0-43.904-106l-56.784-56.784a15.968 15.968 0 0 0-24.624 2.432l-8.192 12.304a80.016 80.016 0 0 0-54.96-48.736 195.92 195.92 0 0 1 70.464-118.208 15.984 15.984 0 1 0-19.984-24.976 227.584 227.584 0 0 0-82.656 141.776 79.296 79.296 0 0 0-39.088 18.208A174.688 174.688 0 0 0 192 128h-32a16 16 0 0 0-16 16c0 75.792 48.256 140.368 115.584 165.088A95.04 95.04 0 0 0 224 383.2c0 18.976 5.52 37.104 15.808 52.56-59.36 13.632-104.88 63.952-111.072 125.792A80.064 80.064 0 0 0 64 640c0 1.424 0.192 2.832 0.56 4.208l96 352A16 16 0 0 0 176 1008h448a16 16 0 0 0 15.44-11.792l96-352c0.368-1.376 0.56-2.784 0.56-4.208a80.096 80.096 0 0 0-64.736-78.464zM352.192 194.88c-0.016 1.2-0.192 2.368-0.192 3.568V208a16 16 0 0 0 32 0v-9.552c0-1.168 0.176-2.288 0.192-3.44A47.92 47.92 0 0 1 416 240c0 26.464-21.536 48-48 48s-48-21.536-48-48c0-20.912 13.52-38.544 32.192-45.12zM176.88 160H192a142.88 142.88 0 0 1 102.864 43.232c0.544 0.56 1.248 0.784 1.84 1.248A78.88 78.88 0 0 0 288 240c0 17.6 5.888 33.744 15.552 46.96-66.416-7.6-119.28-60.48-126.672-126.96z m142.32 160l0.384-0.016L320 320h32c1.888 0 3.648-0.48 5.344-1.072 3.52 0.464 7.008 1.072 10.656 1.072 35.68 0 65.616-23.632 75.904-55.952l0.064-0.048c5.136-5.776 9.904-11.968 14.176-18.352l8.352-12.528 42.992 42.976A117.216 117.216 0 0 1 544 359.456a117.584 117.584 0 0 1-19.792 65.392l-4.768 7.152H278.624l-4.112-4.112A62.784 62.784 0 0 1 256 383.2 63.28 63.28 0 0 1 319.2 320zM272 464h256c56.976 0 104.048 42.8 111.008 97.904A80.16 80.16 0 0 0 592 592.032a79.984 79.984 0 0 0-128 0.016 79.952 79.952 0 0 0-128 0 79.952 79.952 0 0 0-128 0 80.064 80.064 0 0 0-47.008-30.128C167.952 506.8 215.024 464 272 464z m176 416v96h-96v-96h96z m-160-32v-64h224v64H288z m64-96v-16a16 16 0 0 0-32 0v16h-48a16 16 0 0 0-16 16v96a16 16 0 0 0 16 16h48v96h-80.704l-15.28-336.112A48.048 48.048 0 0 1 272 592c26.464 0 48 21.536 48 48v32a16 16 0 0 0 32 0v-32c0-26.464 21.536-48 48-48s48 21.536 48 48v112h-96zM96.032 638A48.08 48.08 0 0 1 144 592c26.464 0 48 21.536 48 48 0 0.128 0.064 0.24 0.08 0.352 0 0.128-0.064 0.24-0.064 0.368L207.248 976h-19.04L96.032 638zM611.776 976h-19.04l0.688-15.28a16 16 0 0 0-15.264-16.704 16.144 16.144 0 0 0-16.704 15.264L560.704 976H480v-96h48a16 16 0 0 0 16-16v-96a16 16 0 0 0-16-16h-48v-112c0-26.464 21.536-48 48-48a48.048 48.048 0 0 1 47.984 47.888l-11.6 255.392a16 16 0 0 0 15.264 16.704l0.736 0.016a16 16 0 0 0 15.968-15.28l11.632-256c0-0.128-0.064-0.24-0.064-0.368 0.016-0.112 0.08-0.224 0.08-0.352 0-26.464 21.536-48 48-48a48.08 48.08 0 0 1 47.968 46L611.776 976zM896 725.616V353.056l31.296-234.736c0.464-3.504 0.704-7.024 0.704-10.576V96c0-44.112-35.888-80-80-80s-80 35.888-80 80v11.744c0 3.536 0.24 7.072 0.704 10.576L800 353.056v372.56c-37.152 19.712-64 69.904-64 122.384 0 74 48.928 160 112 160 65.808 0 112-103.792 112-160 0-52.48-26.848-102.672-64-122.384zM800 96c0-26.464 21.536-48 48-48s48 21.536 48 48v11.744c0 2.128-0.144 4.256-0.416 6.352L865.984 336h-35.984L800.416 114.096A49.44 49.44 0 0 1 800 107.744V96z m48 880c-42.336 0-80-71.584-80-128 0-43.024 23.936-86.496 53.344-96.912A16 16 0 0 0 832 736V368h32v368a16 16 0 0 0 10.656 15.088C904.064 761.504 928 804.976 928 848c0 47.008-39.536 128-80 128z" fill="" p-id="2064"></path><path d="M865.312 781.776a16 16 0 0 0-14.56 28.448c3.216 3.072 13.248 18.272 13.248 37.776 0 21.552-17.408 56.432-27.92 66.08a16 16 0 1 0 21.616 23.584C875.056 921.76 896 878.208 896 848c0-32.336-17.872-60.352-30.688-66.224z" fill="" p-id="2065"></path><path d="M848 112m-16 0a16 16 0 1 0 32 0 16 16 0 1 0-32 0Z" fill="" p-id="2066"></path></svg>