<?xml version="1.0" standalone="no"?><!DOCTYPE svg PUBLIC "-//W3C//DTD SVG 1.1//EN" "http://www.w3.org/Graphics/SVG/1.1/DTD/svg11.dtd"><svg t="1624609026988" class="icon" viewBox="0 0 1024 1024" version="1.1" xmlns="http://www.w3.org/2000/svg" p-id="4685" xmlns:xlink="http://www.w3.org/1999/xlink" width="200" height="200"><defs><style type="text/css"></style></defs><path d="M928 560h-16.816c-8.08-105.264-94.704-188.688-201.296-191.696a207.76 207.76 0 0 0-320.096-104.496L280.96 46.144A54.24 54.24 0 0 0 232.192 16h-1.664a54.576 54.576 0 0 0-48.304 79.808l136.288 260.176c-1.584 4.048-3.056 8.128-4.4 12.304-10.384 0.288-20.56 1.328-30.512 3.104L120.96 46.144A54.24 54.24 0 0 0 72.192 16h-1.664a54.576 54.576 0 0 0-48.304 79.808l166.928 318.704A207.712 207.712 0 0 0 112.816 560H96a16 16 0 0 0-16 16v64c0 134.064 87.328 247.904 208 288.224V992a16 16 0 0 0 16 16h416a16 16 0 0 0 16-16v-63.776c120.672-40.32 208-154.16 208-288.224v-64a16 16 0 0 0-16-16z m-48.816 0h-32.128c-8-71.888-69.072-128-143.056-128s-135.072 56.112-143.056 128h-32.128c8.112-89.568 83.536-160 175.184-160s167.072 70.432 175.184 160z m-96.8 0c-7.44-36.464-39.744-64-78.384-64s-70.944 27.536-78.384 64H593.28c7.808-54.176 54.416-96 110.72-96s102.912 41.824 110.72 96h-32.336z m-33.328 0h-90.096c6.624-18.576 24.224-32 45.056-32s38.416 13.424 45.04 32zM512 496.128a208.56 208.56 0 0 0-47.472-69.392C467.2 402.768 487.328 384 512 384s44.8 18.768 47.472 42.736A208.56 208.56 0 0 0 512 496.128z m164.672-126.112c-10.864 1.44-21.504 3.616-31.776 6.672a146.08 146.08 0 0 0-8.16-16.672 16 16 0 1 0-27.696 16c2.272 3.936 4.208 8.096 6 12.272-9.84 4.688-19.328 9.952-28.24 16.048C575.456 373.872 546.352 352 512 352s-63.456 21.872-74.768 52.336a206.88 206.88 0 0 0-28.24-16.048A111.472 111.472 0 0 1 512 320a111.52 111.52 0 0 1 61.568 18.416 16 16 0 0 0 17.6-26.72A143.52 143.52 0 0 0 512 288a143.408 143.408 0 0 0-132.88 88.688 206.848 206.848 0 0 0-31.792-6.672A175.856 175.856 0 0 1 512 256c73.984 0 139.168 46.064 164.672 114.016zM210.576 80.976A22.544 22.544 0 0 1 230.528 48h1.664a22.4 22.4 0 0 1 20.144 12.448l112.4 224.8a207.712 207.712 0 0 0-28.496 35.632L210.576 80.976z m-160 0A22.544 22.544 0 0 1 70.528 48h1.664a22.4 22.4 0 0 1 20.144 12.448l159.6 319.216c-12.672 4.4-24.768 9.968-36.208 16.64L50.576 80.976zM320 400c91.648 0 167.072 70.432 175.184 160h-32.128c-8-71.888-69.072-128-143.056-128a143.312 143.312 0 0 0-112.4 54 16 16 0 1 0 24.976 20A111.536 111.536 0 0 1 320 464c56.304 0 102.912 41.824 110.72 96h-32.336c-7.44-36.464-39.744-64-78.384-64s-70.944 27.536-78.384 64h-32.384c0.576-4.048 1.28-8.08 2.288-12.016a16 16 0 1 0-30.976-7.968A145.12 145.12 0 0 0 177.008 560H144.816C152.928 470.432 228.352 400 320 400z m45.056 160h-90.096c6.624-18.576 24.224-32 45.056-32s38.416 13.424 45.04 32zM912 640c0 149.984-122.016 272-272 272a16 16 0 1 0 0 32 303.52 303.52 0 0 0 64-6.912V976H320v-38.912A303.52 303.52 0 0 0 384 944h192a16 16 0 1 0 0-32H384c-149.984 0-272-122.016-272-272v-48h800v48z" fill="#218380" p-id="4686"></path><path d="M384 848c-91.264 0-173.248-61.104-199.36-148.592a16 16 0 0 0-30.656 9.152C184.112 809.504 278.704 880 384 880a16 16 0 1 0 0-32z" fill="#218380" p-id="4687"></path><path d="M160 640m-16 0a16 16 0 1 0 32 0 16 16 0 1 0-32 0Z" fill="#218380" p-id="4688"></path></svg>