<?xml version="1.0" standalone="no"?><!DOCTYPE svg PUBLIC "-//W3C//DTD SVG 1.1//EN" "http://www.w3.org/Graphics/SVG/1.1/DTD/svg11.dtd"><svg t="1624609241956" class="icon" viewBox="0 0 1024 1024" version="1.1" xmlns="http://www.w3.org/2000/svg" p-id="1813" xmlns:xlink="http://www.w3.org/1999/xlink" width="200" height="200"><defs><style type="text/css"></style></defs><path d="M992 304H816.368L846.24 48H992a16 16 0 1 0 0-32H832a15.984 15.984 0 0 0-15.888 14.144L784.16 304H608a16 16 0 0 0-16 16v624c0 35.296 28.704 64 64 64h288c35.296 0 64-28.704 64-64V320a16 16 0 0 0-16-16z m-16 32v175.36c-40.112-2.96-80.496-16.384-122.944-30.528a1307.088 1307.088 0 0 0-55.28-17.536L812.64 336H976z m-195.568 0l-13.936 119.456C745.808 450.96 724.944 448 704 448c-35.44 0-62.08 9.056-80 18.192V336h156.432zM624 944V503.504c10.016-7.536 36.272-23.504 80-23.504 19.504 0 39.04 2.896 58.768 7.36L705.76 976H656c-17.648 0-32-14.352-32-32z m320 32H737.968l56.048-480.464c16.064 4.736 32.32 10.112 48.912 15.632 43.296 14.432 87.92 29.216 133.056 32.192V944A32 32 0 0 1 944 976zM552.24 226.288L480 182.944V64c0-26.464-21.536-48-48-48H176C149.536 16 128 37.536 128 64v118.944l-72.24 43.344A16 16 0 0 0 48 240v176c0 4.256 1.68 8.32 4.688 11.312L96 470.624v98.752l-24.56 24.56A79.504 79.504 0 0 0 48 650.512V928c0 44.112 35.888 80 80 80h352c44.112 0 80-35.888 80-80V650.512a79.504 79.504 0 0 0-23.44-56.576L512 569.376v-98.752l43.312-43.312A15.936 15.936 0 0 0 560 416V240a16 16 0 0 0-7.76-13.712zM80 384v-112h352a16 16 0 1 0 0-32H95.104l53.328-32h311.136l53.328 32H496a16 16 0 1 0 0 32h32v112H80zM256 144v32h-32V144h32z m64 0v32h-32V144h32z m64 0v32h-32V144h32z m64 0v32h-32V144h32z m-256 32h-32V144h32v32z m-16-128h256a16 16 0 0 1 16 16v48H160V64a16 16 0 0 1 16-16zM86.624 416h434.752l-32 32H118.624l-32-32zM128 560v-80h352v80H128z m385.936 56.56A47.68 47.68 0 0 1 528 650.512V928c0 26.464-21.536 48-48 48H128c-26.464 0-48-21.536-48-48V650.512c0-12.832 4.992-24.896 14.064-33.952L118.624 592h370.752l24.56 24.56z" fill="#218380" p-id="1814"></path><path d="M928 592m-16 0a16 16 0 1 0 32 0 16 16 0 1 0-32 0Z" fill="#218380" p-id="1815"></path><path d="M928 640a16 16 0 0 0-16 16v272a16 16 0 1 0 32 0V656a16 16 0 0 0-16-16z" fill="#218380" p-id="1816"></path><path d="M464 912m-16 0a16 16 0 1 0 32 0 16 16 0 1 0-32 0Z" fill="#218380" p-id="1817"></path><path d="M320 640m-16 0a16 16 0 1 0 32 0 16 16 0 1 0-32 0Z" fill="#218380" p-id="1818"></path><path d="M192 912H144v-112a16 16 0 1 0-32 0v112c0 17.648 14.352 32 32 32h48a16 16 0 1 0 0-32z" fill="#218380" p-id="1819"></path><path d="M128 736m-16 0a16 16 0 1 0 32 0 16 16 0 1 0-32 0Z" fill="#218380" p-id="1820"></path><path d="M304 864m-16 0a16 16 0 1 0 32 0 16 16 0 1 0-32 0Z" fill="#218380" p-id="1821"></path></svg>