<?xml version="1.0" standalone="no"?><!DOCTYPE svg PUBLIC "-//W3C//DTD SVG 1.1//EN" "http://www.w3.org/Graphics/SVG/1.1/DTD/svg11.dtd"><svg t="1624609378410" class="icon" viewBox="0 0 1024 1024" version="1.1" xmlns="http://www.w3.org/2000/svg" p-id="2212" xmlns:xlink="http://www.w3.org/1999/xlink" width="200" height="200"><defs><style type="text/css"></style></defs><path d="M806.16 783.536L534.624 512 862.72 183.904a15.984 15.984 0 0 0 0-22.624C769.04 67.6 644.496 16 512 16 238.496 16 16 238.496 16 512s222.496 496 496 496c132.496 0 257.04-51.6 350.72-145.28a15.984 15.984 0 0 0 0-22.624l-56.56-56.56z m-34.224 11.04A380.896 380.896 0 0 1 528 895.616V550.624l243.936 243.952zM528 473.376V128.384a380.8 380.8 0 0 1 243.936 101.04L528 473.376zM512 976C256.16 976 48 767.84 48 512S256.16 48 512 48c118.592 0 230.384 44.192 316.592 124.784l-34.032 34.032C717.456 135.264 617.776 96 512 96c-114.304 0-217.984 46.352-293.248 121.232-0.288 0.24-0.64 0.336-0.912 0.608s-0.352 0.624-0.608 0.912C142.352 294.016 96 397.696 96 512c0 229.392 186.608 416 416 416 105.776 0 205.456-39.264 282.576-110.8l34.032 34.032C742.384 931.808 630.592 976 512 976zM240 496H128.4a382.48 382.48 0 0 1 101.152-243.824L473.376 496H368a16 16 0 1 0 0 32h105.376L229.552 771.824A382.56 382.56 0 0 1 128.4 528H240a16 16 0 1 0 0-32z m256 54.624v344.976a382.48 382.48 0 0 1-243.824-101.152L496 550.624zM252.176 229.552A382.56 382.56 0 0 1 496 128.4v344.976L252.176 229.552z" fill="#218380" p-id="2213"></path><path d="M908.8 214.384a15.968 15.968 0 0 0-24.096-1.696l-288 288A16 16 0 0 0 608 528h64v62.288c0 24.256 17.216 45.36 40.048 49.072a48.144 48.144 0 0 0 39.024-10.784A47.92 47.92 0 0 0 768 592v-48a16 16 0 0 1 32 0v142.288c0 24.256 17.216 45.36 40.048 49.072a47.92 47.92 0 0 0 39.024-10.784A47.92 47.92 0 0 0 896 688V528h96a16 16 0 0 0 16-16c0-108.32-34.32-211.216-99.2-297.616zM927.376 496c-0.224-5.776-0.224-11.6-0.688-17.28a16 16 0 0 0-31.904 2.56c0.384 4.832 0.384 9.808 0.576 14.72H880a16 16 0 0 0-16 16v176a16.032 16.032 0 0 1-18.8 15.776c-7.408-1.216-13.2-8.88-13.2-17.488V544c0-26.464-21.536-48-48-48s-48 21.536-48 48v48a16.032 16.032 0 0 1-18.8 15.776c-7.408-1.216-13.2-8.88-13.2-17.488V512a16 16 0 0 0-16-16h-41.376l189.328-189.328c22.272 35.04 38.944 72.896 48.896 113.168a16 16 0 0 0 31.056-7.68c-11.344-45.952-30.688-89.04-56.816-128.624l34.928-34.928A459.072 459.072 0 0 1 975.728 496h-48.352z" fill="#218380" p-id="2214"></path><path d="M736 464m-16 0a16 16 0 1 0 32 0 16 16 0 1 0-32 0Z" fill="#218380" p-id="2215"></path><path d="M832 416m-16 0a16 16 0 1 0 32 0 16 16 0 1 0-32 0Z" fill="#218380" p-id="2216"></path><path d="M688 224m-16 0a16 16 0 1 0 32 0 16 16 0 1 0-32 0Z" fill="#218380" p-id="2217"></path><path d="M576 336m-16 0a16 16 0 1 0 32 0 16 16 0 1 0-32 0Z" fill="#218380" p-id="2218"></path><path d="M432 192m-16 0a16 16 0 1 0 32 0 16 16 0 1 0-32 0Z" fill="#218380" p-id="2219"></path><path d="M368 576m-16 0a16 16 0 1 0 32 0 16 16 0 1 0-32 0Z" fill="#218380" p-id="2220"></path><path d="M256 352m-16 0a16 16 0 1 0 32 0 16 16 0 1 0-32 0Z" fill="#218380" p-id="2221"></path><path d="M192 432m-16 0a16 16 0 1 0 32 0 16 16 0 1 0-32 0Z" fill="#218380" p-id="2222"></path><path d="M448 816m-16 0a16 16 0 1 0 32 0 16 16 0 1 0-32 0Z" fill="#218380" p-id="2223"></path><path d="M240 688m-16 0a16 16 0 1 0 32 0 16 16 0 1 0-32 0Z" fill="#218380" p-id="2224"></path><path d="M448 656m-16 0a16 16 0 1 0 32 0 16 16 0 1 0-32 0Z" fill="#218380" p-id="2225"></path><path d="M640 736m-16 0a16 16 0 1 0 32 0 16 16 0 1 0-32 0Z" fill="#218380" p-id="2226"></path><path d="M384 720a16 16 0 1 0 0 32 16 16 0 1 1-16 16 16 16 0 1 0-32 0c0 26.464 21.536 48 48 48s48-21.536 48-48-21.536-48-48-48zM592 848c26.464 0 48-21.536 48-48s-21.536-48-48-48-48 21.536-48 48 21.536 48 48 48z m0-64a16 16 0 1 1 0 32 16 16 0 0 1 0-32zM400 240c-26.464 0-48 21.536-48 48s21.536 48 48 48a16 16 0 1 0 0-32 16 16 0 1 1 16-16 16 16 0 1 0 32 0c0-26.464-21.536-48-48-48zM608 272c26.464 0 48-21.536 48-48s-21.536-48-48-48-48 21.536-48 48 21.536 48 48 48z m0-64a16 16 0 1 1 0 32 16 16 0 0 1 0-32zM256 432c0 26.464 21.536 48 48 48s48-21.536 48-48-21.536-48-48-48-48 21.536-48 48z m48-16a16 16 0 1 1 0 32 16 16 0 0 1 0-32zM176 592c0 26.464 21.536 48 48 48s48-21.536 48-48-21.536-48-48-48-48 21.536-48 48z m64 0a16 16 0 1 1-32 0 16 16 0 0 1 32 0z" fill="#218380" p-id="2227"></path><path d="M304 512m-16 0a16 16 0 1 0 32 0 16 16 0 1 0-32 0Z" fill="#218380" p-id="2228"></path></svg>